<?xml version="1.0" encoding="UTF-8"?>
<svg width="35px" height="35px" viewBox="0 0 35 35" version="1.1" xmlns="http://www.w3.org/2000/svg" xmlns:xlink="http://www.w3.org/1999/xlink">
    <g transform="translate(-44.000000, -286.000000)" fill="#585858">
        <g transform="translate(40.000000, 286.000000)">
            <path d="M33.5953868,0 C33.5953868,0 21.4297284,4.75178406 16.0248036,6.68434853 C13.4367616,7.81908354 8.36628656,14.6808237 10.426112,16.7198751 L10.5140979,16.8084843 L5.07388419,16.8084843 C4.31682678,16.8084843 4,17.3226949 4,17.6240183 L4,33.8297261 C4,34.2553274 4.24646381,35 5.09155015,35 L30.3735193,35 C31.2009397,35 31.3945346,34.1312226 31.3945346,33.8474739 L31.3945346,19.1133634 C30.6727231,19.5922516 29.9156657,19.9113227 29.1762313,20.1773236 C29.1762313,20.2128192 29.1938543,20.2481417 29.1938543,20.2836807 L29.1938543,27.0567683 L6.2006803,27.0567683 L6.2006803,19.4148599 C6.2006803,19.1666502 6.46481007,18.7410488 7.09863557,18.7410488 L14.5282688,18.7410488 C15.3909781,18.1559767 16.3944993,17.4823388 17.3628175,16.8440233 L13.7183424,16.8440233 C15.0388623,15.5496011 18.6655426,11.968091 18.8593094,11.7729516 C19.1058162,11.5247418 22.6268445,11.2764888 22.8206113,11.7729516 C23.0142061,12.2694144 23.0671181,13.3510791 22.8206113,13.9361511 C22.5741474,14.5212232 14.7394866,19.3793643 14.246559,20.0531754 C13.7008484,20.8156391 13.5423705,24.0956527 17.0810648,23.3864758 C19.7219757,22.8545173 25.2148864,19.9468184 25.2148864,19.9468184 C25.2148864,19.9468184 33.3136341,19.9823573 35.6199663,13.1559396 C35.6552122,13.0495826 35.2502276,13.9716468 35.7255752,12.8368685 C36.2010518,11.7021334 38.8065448,10.2836065 38.9826886,9.57442953 C39.1411665,8.88304372 38.2785002,1.13473502 33.5953868,0 Z M29.1762313,29.6985097 L29.1762313,32.109919 C29.1762313,32.3581287 29.0002594,33.0850535 28.313522,33.0850535 L7.11625855,33.0850535 C6.41189815,33.0850535 6.2006803,32.4644858 6.2006803,32.109919 L6.2006803,29.6985097 L29.1762313,29.6985097 Z" id="fukuan"></path>
        </g>
    </g>
</svg>