<?xml version="1.0" encoding="UTF-8"?>
<svg width="12px" height="12px" viewBox="0 0 12 12" version="1.1" xmlns="http://www.w3.org/2000/svg" xmlns:xlink="http://www.w3.org/1999/xlink">
    <g transform="translate(-23.000000, -210.000000)" fill="#4a4a4a">
        <g transform="translate(23.000000, 210.000000)">
            <path d="M6.87428571,12 C6.73714286,12 6.61714286,11.9485714 6.51428571,11.8457143 C6.51428571,11.8457143 2.60571428,9.78857143 2.55428571,9.78857143 L1.02857142,9.78857143 C0.462857133,9.78857143 -1.171875e-08,9.32571429 0,8.76 L0,3.48 C0,2.91428571 0.462857145,2.45142857 1.01142857,2.45142857 L2.55428571,2.45142857 L6.51428571,0.154285711 C6.6,0.0514285664 6.73714286,0 6.87428571,0 C7.14857142,0 7.38857142,0.222857145 7.38857142,0.514285711 L7.38857142,11.4857143 C7.38857142,11.7771429 7.16571428,12 6.87428571,12 Z M6.53142857,1.2 L3.08571428,3.15428571 C2.93142857,3.25714286 2.75999999,3.32571428 2.58857142,3.32571429 L1.04571428,3.32571429 C0.959999988,3.32571429 0.874285711,3.39428572 0.874285711,3.49714286 L0.874285711,8.79428571 C0.874285711,8.88 0.942857145,8.96571428 1.04571428,8.96571429 L2.57142857,8.96571429 C2.67428571,8.96571429 2.77714286,8.98285714 2.88,9.01714286 C3.01714286,9.08571429 6.20571429,10.6285714 6.54857142,10.8514286 L6.53142857,1.2 Z" id="Shape"></path>
            <path d="M10.2026001,9.45726708 C10.1168859,9.54298137 10.0140287,9.59440993 9.89402872,9.59440994 C9.77402873,9.59440996 9.67117158,9.54298138 9.58545729,9.47440994 C9.41402872,9.30298138 9.41402872,9.04583851 9.58545729,8.87440994 C11.0940287,7.36583851 11.1454573,4.94869566 9.65402872,3.42298137 L9.56831443,3.33726708 C9.39688587,3.16583851 9.39688587,2.90869564 9.56831443,2.73726708 C9.739743,2.56583851 10.0140287,2.56583851 10.1854573,2.73726708 C12.0368859,4.53726708 12.0711716,7.52012422 10.2711716,9.3715528 C10.2711716,9.40583851 10.2368859,9.42298137 10.2026001,9.45726708 Z M8.57402872,8.25726708 C8.48831443,8.34298137 8.38545729,8.37726708 8.26545729,8.37726708 C8.14545729,8.37726708 8.04260014,8.32583851 7.95688587,8.25726708 C7.7854573,8.10298137 7.7854573,7.84583851 7.939743,7.67440994 L7.95688587,7.65726708 C8.77974301,6.88583851 8.83117158,5.60012422 8.059743,4.77726708 L7.95688587,4.67440994 C7.7854573,4.52012423 7.7854573,4.26298138 7.939743,4.0915528 L7.95688587,4.07440994 C8.12831443,3.90298138 8.40260015,3.90298138 8.57402872,4.07440994 C9.72260015,5.15440994 9.79117158,6.95440994 8.71117158,8.12012422 C8.65974301,8.15440993 8.62545729,8.20583851 8.57402872,8.25726708 Z" id="Shape"></path>
        </g>
    </g>
</svg>