<?xml version="1.0" encoding="UTF-8"?>
<svg width="29px" height="35px" viewBox="0 0 29 35" version="1.1" xmlns="http://www.w3.org/2000/svg" xmlns:xlink="http://www.w3.org/1999/xlink">
    <g transform="translate(-307.000000, -286.000000)">
        <g transform="translate(302.000000, 286.000000)">
            <g transform="translate(5.000000, 0.000000)">
                <path d="M28.43455,25.440952 C28.0705,24.619464 27.5666,23.8888575 26.9385,23.2688787 C26.31055,22.6487518 25.5666,22.1511989 24.73455,21.7917701 C23.89865,21.4325388 22.9865,21.2468265 22.02655,21.2468265 C21.0906,21.2468265 20.1906,21.4284908 19.3506,21.7917701 C18.51855,22.1511989 17.7785,22.6487518 17.1465,23.2688787 C16.51855,23.8888575 16.01465,24.619464 15.6506,25.440952 C15.2865,26.2662906 15.09865,27.154866 15.09865,28.0829831 C15.09865,29.0307475 15.2826,29.9310719 15.6506,30.7566079 C16.01465,31.5780465 16.51855,32.3085049 17.1465,32.9286812 C17.7746,33.5486107 18.51855,34.0463117 19.3506,34.4055924 C20.1906,34.7650212 21.0865,34.9507334 22.02655,34.9507334 C22.9865,34.9507334 23.89455,34.7688717 24.73455,34.4055924 C25.5666,34.0463117 26.31055,33.5486107 26.9385,32.9286812 C27.5666,32.3085049 28.0705,31.5780465 28.43455,30.7566079 C28.79865,29.9310719 28.9865,29.0347955 28.9865,28.0829831 C28.9865,27.1510155 28.80255,26.2624401 28.43455,25.440952 Z M27.0586,25.4330536 L20.60255,32.2018759 C20.52245,32.2888575 20.41055,32.3362976 20.2865,32.3401481 L20.2705,32.3401481 C20.1545,32.3401481 20.0465,32.296756 19.9625,32.2217207 L17.0545,29.595536 C16.9625,29.5126516 16.91465,29.4019252 16.91055,29.2794993 C16.91055,29.157024 16.9586,29.0465444 17.0465,28.9595628 L17.9465,28.1105289 C18.03045,28.0316925 18.1426,27.988103 18.2586,27.988103 C18.3785,27.988103 18.4865,28.0316925 18.5705,28.1105289 L20.22655,29.650677 C20.2385,29.6586248 20.2506,29.6665233 20.2666,29.6665233 C20.2826,29.6665233 20.29455,29.6586248 20.30255,29.650677 L25.4785,23.9995346 C25.5625,23.9085049 25.6746,23.8572144 25.79865,23.8533639 C25.92245,23.8493159 26.0385,23.8929055 26.13045,23.9757898 L27.0385,24.8248731 C27.12245,24.9037094 27.1746,25.0103385 27.1746,25.1249154 C27.1826,25.2394429 27.1385,25.3501199 27.0586,25.4330536 Z M18.63455,0.0592877292 C20.69455,0.355479549 24.79455,4.68382934 24.71055,6.49257405 C23.0666,6.49257405 21.40255,6.5992031 19.7625,6.44513399 C18.9506,6.3701481 18.6906,5.39863893 18.6545,4.62054302 C18.5865,3.12783498 18.63455,1.62318054 18.63455,0.0592877292 Z" id="Fill-1" fill="#585858" mask="url(#mask-2)"></path>
                <path d="M15.02245,31.6372849 C14.61055,30.5946403 14.40255,29.4769605 14.40255,28.2763963 C14.40255,27.6643159 14.4586,27.0757828 14.5705,26.4992454 C11.8465,26.5032934 9.12655,26.4992454 6.40255,26.4912976 C4.9666,26.4874471 4.0746,25.5869252 4.0865,24.2245416 C4.09865,22.9055994 4.9865,22.0604161 6.3906,22.0524683 C8.3666,22.0405219 10.3385,22.0484203 12.31465,22.0484203 C13.83045,22.0484203 15.3465,22.0445698 16.8625,22.0445698 C17.53045,21.3455571 18.30255,20.7848166 19.1705,20.3621016 C20.11465,19.9079901 21.11465,19.6788858 22.1746,19.6788858 C23.0865,19.6788858 23.9506,19.8409027 24.7586,20.1646403 L24.7586,8.95294076 C24.5826,8.89760226 24.53045,8.8659591 24.4746,8.8659591 C23.0625,8.85806065 21.6506,8.87000705 20.2385,8.84226375 C18.3506,8.80272214 17.03455,7.65749647 16.62655,5.6869323 C16.50665,5.10244711 16.4705,4.49426657 16.4586,3.89398449 C16.43455,2.63418195 16.4506,1.37442877 16.4506,0.0118476728 L4.61855,0.0118476728 C1.93045,0.0118476728 0.01855,2.0022567 0.01055,4.86929478 C-0.00545,12.6572638 -0.00135,20.4490832 0.01055,28.2370522 C0.01465,30.8512906 2.1705,33.1220945 4.61855,33.1261425 C8.33455,33.1299929 12.0465,33.1299929 15.7625,33.1299929 C15.4826,32.6679831 15.23455,32.1704302 15.02245,31.6372849 Z M6.4506,13.1943089 C10.39865,13.1864104 14.3465,13.1864104 18.29455,13.1943089 C19.70255,13.1983568 20.6385,14.1066291 20.6426,15.4414175 C20.6465,16.7802539 19.7385,17.6412341 18.2785,17.6491326 C16.30255,17.6609309 14.33045,17.6529831 12.3545,17.6529831 C10.3785,17.6529831 8.40665,17.6609309 6.43045,17.6491326 C4.9545,17.6412341 4.0785,16.7922003 4.0906,15.4255712 C4.10255,14.0670874 5.00665,13.1983568 6.4506,13.1943089 Z" id="Fill-3" fill="#585858" mask="url(#mask-2)"></path>
            </g>
        </g>
    </g>
</svg>