<?xml version="1.0" encoding="UTF-8"?>
<svg width="35px" height="35px" viewBox="0 0 35 35" version="1.1" xmlns="http://www.w3.org/2000/svg" xmlns:xlink="http://www.w3.org/1999/xlink">
    <g transform="translate(-216.000000, -286.000000)">
        <g transform="translate(215.000000, 286.000000)">
            <g transform="translate(1.000000, 0.000000)">
                <path d="M32.718128,12.5218902 C32.4683902,12.7716707 32.2186098,12.7716707 31.9688293,12.7716707 L2.74737195,12.7716707 C2.24785366,12.7716707 1.74833537,12.5218902 1.74833537,12.022372 C1.74833537,11.7726341 1.74833537,11.5228537 1.99807317,11.2730732 C2.24785366,11.0233354 2.49763415,11.0233354 2.74737195,11.0233354 L32.2186098,11.0233354 C32.718128,11.0233354 33.2174756,11.5228537 33.2174756,12.022372 L32.718128,12.5218902 M27.473122,20.763878 L21.4790305,27.7570488 C21.4790305,27.7570488 21.22925,28.0067866 20.9795122,28.0067866 L20.4799512,28.0067866 C20.2302134,28.0067866 19.9804329,27.7570488 19.7306951,27.5072683 L16.9834512,24.5102866 C16.4839329,24.2605488 16.4839329,23.7610305 16.4839329,23.2615122 C16.7337134,23.0117317 16.9834512,22.5122134 17.2332317,22.5122134 C17.73275,22.5122134 17.9825305,22.5122134 18.2320976,22.7619512 L20.4799512,25.0098476 L25.9745671,18.7657622 C26.4740854,18.2662439 26.9736037,18.2662439 27.473122,19.0155427 C27.9726402,19.515061 27.9726402,20.2643598 27.473122,20.763878 M14.7355976,22.2624329 C14.4858598,22.7619512 13.9863415,23.0117317 13.736561,23.0117317 L7.24290854,23.0117317 C6.74339024,23.0117317 6.24387195,22.5122134 6.24387195,21.7629146 C6.24387195,21.2633963 6.74339024,20.5140976 7.24290854,20.5140976 L13.736561,20.5140976 C14.2360793,20.5140976 14.4858598,20.763878 14.7355976,21.0136585 L14.7355976,22.2624329 M10.4898415,27.7570488 L7.24290854,27.7570488 C6.74339024,27.7570488 6.24387195,27.2575305 6.24387195,26.5082317 C6.24387195,26.0087134 6.74339024,25.2595854 7.24290854,25.2595854 L10.4898415,25.2595854 C10.989189,25.2595854 11.4887073,25.7589329 11.4887073,26.5082317 C11.4887073,27.2575305 10.989189,27.7570488 10.4898415,27.7570488 M33.9667744,8.27613415 L30.9697927,2.53178049 C30.2204939,1.03318293 28.2224207,0.0341463415 26.7238659,0.0341463415 L8.2419878,0.0341463415 C6.74339024,0.0341463415 4.74531707,1.28296341 3.99601829,2.53178049 L1.24881707,8.27613415 C0.499518293,9.52490854 0,11.5228537 0,12.7716707 L0,31.7532378 C0,33.5014024 1.49855488,34.9999573 3.24689024,34.9999573 L31.7190915,34.9999573 C33.4672561,34.9999573 34.965811,33.5014024 34.965811,31.7532378 L34.965811,13.0214085 C34.965811,11.5228537 34.4662927,9.52490854 33.9667744,8.27613415" id="Fill-1" fill="#585858" mask="url(#mask-2)"></path>
            </g>
        </g>
    </g>
</svg>