<?xml version="1.0" encoding="UTF-8"?>
<svg width="43px" height="35px" viewBox="0 0 43 35" version="1.1" xmlns="http://www.w3.org/2000/svg" xmlns:xlink="http://www.w3.org/1999/xlink">
    <g transform="translate(-125.000000, -286.000000)">
        <g transform="translate(125.000000, 286.000000)">
            <path d="M13.7688856,8.00044294 C13.537278,8.23072823 13.2544723,8.345503 12.9195695,8.345503 L9.29159656,8.345503 C8.95727552,8.345503 8.67404674,8.23057057 8.44265068,8.00044294 C8.21104305,7.77031532 8.09537146,7.48905405 8.09537146,7.15671171 L8.09537146,2.36292042 C8.09537146,2.03078829 8.21104305,1.74626877 8.44265068,1.50978228 C8.6742583,1.2732958 8.95727552,1.15526276 9.29159656,1.15526276 C9.62607626,1.15526276 9.91242558,1.27350601 10.150433,1.50978228 C10.3886519,1.74647898 10.5076556,2.03057808 10.5076556,2.36313063 L10.5076556,5.94884384 L12.9197282,5.94884384 C13.2542608,5.94884384 13.5370664,6.06708709 13.7688856,6.30357357 C14.0004932,6.54006006 14.1162177,6.82436937 14.1162177,7.15692192 C14.1162177,7.48905405 14.0004932,7.77031532 13.7688856,8.00044294 Z M15.8200332,4.06578078 C15.4679938,3.26598348 14.9899164,2.56614114 14.3864354,1.96651652 C13.7827429,1.36668168 13.0786113,0.89207958 12.2737232,0.54207958 C11.4687823,0.19228979 10.6136482,0.0173423423 9.7085326,0.0173423423 C8.78294834,0.0173423423 7.91787085,0.19228979 7.11314145,0.54207958 C6.30825338,0.89207958 5.60433333,1.36668168 5.00042927,1.96651652 C4.39694834,2.56614114 3.91887085,3.26598348 3.56699016,4.06578078 C3.21473924,4.86552553 3.03871956,5.71477477 3.03871956,6.61457958 C3.03871956,7.53424925 3.21473924,8.39374625 3.56699016,9.19333333 C3.91887085,9.99334084 4.39694834,10.6927102 5.00042927,11.292545 C5.60412177,11.8923799 6.30825338,12.3623048 7.11314145,12.7020045 C7.91808241,13.0417568 8.78310701,13.2117643 9.7085326,13.2117643 C10.6138598,13.2117643 11.4692054,13.0417568 12.2737232,12.7020045 C13.0786113,12.3620946 13.7827429,11.8923799 14.3864354,11.292545 C14.9901279,10.6927102 15.4679938,9.99334084 15.8200332,9.19333333 C16.1721255,8.39374625 16.3481451,7.53403904 16.3481451,6.61457958 C16.3481451,5.71477477 16.1719139,4.86531532 15.8200332,4.06578078 Z M39.5028253,22.2992568 C39.2596347,22.3123949 38.9761943,22.3193318 38.6518167,22.3193318 L31.1971611,22.3193318 C31.0081304,22.3193318 30.8190467,22.2253153 30.630016,22.0374925 C30.4409852,21.8494595 30.3463641,21.688491 30.3463641,21.5542718 L30.3463641,21.5140165 C30.3194957,20.198994 30.3056384,19.0048423 30.3056384,17.9309835 L30.3056384,14.2679129 C30.3056384,13.972515 30.427551,13.697455 30.6705301,13.4426802 C30.9134563,13.1877477 31.2105953,13.0604655 31.5617884,13.0604655 C31.5888684,13.0604655 31.7913333,13.0466967 32.1696064,13.02 C32.5477208,12.9931456 33.0136335,13.0132207 33.5675031,13.0803829 C34.121214,13.1472823 34.7085633,13.2951126 35.3298155,13.5231381 C35.950909,13.7512162 36.531647,14.1203453 37.0719237,14.6302628 C37.9092866,15.4891817 38.5034588,16.5291441 38.8544932,17.7501502 C39.2057392,18.9711562 39.5301169,20.2391967 39.8267798,21.5542718 C39.8267798,21.6078228 39.8338143,21.6480781 39.8472485,21.674985 C39.8606827,21.7018393 39.867294,21.7423048 39.867294,21.7958559 C39.8674526,22.1179505 39.746016,22.2856982 39.5028253,22.2992568 Z M42.6832915,22.7822673 C42.480615,21.2658634 42.1227577,19.7159309 41.6095609,18.1324174 C41.0961525,16.5490616 40.3265424,15.059512 39.3001488,13.6641892 C38.7330037,12.8857808 38.0307761,12.2148949 37.1932017,11.6513739 C36.3603875,11.0901652 35.4626765,10.6305405 34.519321,10.2825375 C33.5739028,9.93358859 32.6150504,9.68559309 31.6426052,9.53781532 C30.6703186,9.39040541 29.7383346,9.35671922 28.8470234,9.43738739 C28.5501488,9.46408408 28.3001353,9.67224474 28.0974588,10.0612387 C27.8949938,10.4502853 27.7937614,10.7925075 27.7937614,11.0876952 L27.7937614,30.491464 C27.7937614,30.974527 27.9691464,31.3906381 28.3203924,31.7393769 C28.6716384,32.0881682 29.0900025,32.2626426 29.5763309,32.2626426 L30.3056384,32.2626426 C30.3056384,31.5918093 30.4339508,30.9541892 30.6905756,30.3506757 C30.9473592,29.7466892 31.2983936,29.2168544 31.7440492,28.7605405 C32.1898635,28.3043844 32.7095129,27.9416667 33.3038967,27.6735435 C33.8980689,27.4050526 34.5461894,27.2707808 35.248417,27.2707808 C35.950909,27.2707808 36.6192337,27.3650075 37.2541316,27.5526201 C37.888818,27.7404955 38.4427405,28.0356832 38.9150529,28.4382357 C39.3879471,28.8407883 39.7660086,29.3642643 40.0497134,30.0082432 C40.3331538,30.6524324 40.4749004,31.4308408 40.4749004,32.3431532 L42.1361919,32.3431532 C42.2981427,32.3431532 42.4266667,32.2626426 42.5212878,32.1017267 C42.6154859,31.9406006 42.6967257,31.7459459 42.7640554,31.5177102 C42.8310148,31.2941517 42.8782989,31.0652327 42.9060135,30.833476 C42.9330406,30.6053979 42.9464748,30.4107958 42.9464748,30.2496697 C42.9464748,29.4178679 42.9532977,28.3442192 42.9667319,27.0289865 C42.9803776,25.7143318 42.8857565,24.2986712 42.68308,22.7822673 L42.6832915,22.7822673 Z M35.4510935,29.8070721 C36.1533739,29.8070721 36.7611919,30.0618468 37.2743887,30.5719745 C37.7875855,31.0818919 38.0442103,31.6854054 38.0442103,32.3833559 C38.0442103,33.108003 37.7875855,33.7251276 37.2743887,34.2348348 C36.7611919,34.7451727 36.1535855,34.9998949 35.4510935,34.9998949 C34.7219975,34.9998949 34.1073567,34.7449625 33.6078057,34.2348348 C33.1080431,33.7251276 32.8582411,33.1077928 32.8582411,32.3833559 C32.8582411,31.6854054 33.1080431,31.0818919 33.6078057,30.5719745 C34.1073567,30.0618468 34.721786,29.8070721 35.4510935,29.8070721 Z M7.57656827,29.7668168 C6.84726076,29.7668168 6.23261993,30.0215916 5.73306888,30.531509 C5.23325338,31.0414264 4.98350431,31.6584985 4.98350431,32.3833559 C4.98350431,33.0809384 5.23325338,33.6848724 5.73306888,34.195 C6.23261993,34.7049174 6.84726076,34.9599024 7.57656827,34.9599024 C8.30587577,34.9599024 8.92030504,34.7049174 9.42006765,34.195 C9.91988315,33.6848724 10.1694207,33.0809384 10.1694207,32.3833559 C10.1694207,31.6589189 9.91967159,31.0414264 9.42006765,30.531509 C8.92030504,30.0215916 8.30587577,29.7668168 7.57656827,29.7668168 Z M17.9274034,4.52577327 C18.1286519,5.23691441 18.2300959,5.97674925 18.2300959,6.74512012 C18.2300959,7.9173048 18.0057343,9.01307808 17.5567466,10.0323348 C17.1080234,11.051539 16.498936,11.9433033 15.7297491,12.7077853 C14.9603506,13.4720571 14.0631156,14.0710511 13.0370923,14.5041892 C12.0111218,14.9371697 10.9214711,15.1537387 9.76739975,15.1537387 C8.58767651,15.1537387 7.48506765,14.9371697 6.45925584,14.5041892 C5.43344403,14.0710511 4.53599754,13.4722673 3.76659902,12.7077853 C2.99720049,11.9433033 2.38832472,11.051539 1.93960148,10.0323348 C1.49066667,9.01307808 1.26625215,7.9173048 1.26625215,6.74512012 C1.26625215,6.616997 1.26958426,6.48992492 1.2749262,6.36348348 C0.888825338,6.8341967 0.584916359,7.34863363 0.364680197,7.90742492 C0.121489545,8.524497 0,9.15533784 0,9.79952703 L0,30.7328904 C0,31.2428078 0.148569496,31.632012 0.445655597,31.9003453 C0.74295326,32.1686261 1.12101476,32.3028979 1.58010455,32.3028979 L2.51208856,32.3028979 C2.51208856,30.5852703 2.95113284,29.3037237 3.82879828,28.4585736 C4.70641082,27.613003 5.96938376,27.1901126 7.61687085,27.1901126 C9.34570357,27.1901126 10.6152878,27.646479 11.4254121,28.5591592 C12.235695,29.4716291 12.641048,30.7197523 12.641048,32.3028979 L23.7015683,32.3028979 C24.1340012,32.3028979 24.5050283,32.1552778 24.8157601,31.8600901 C25.1262804,31.5649024 25.2816728,31.1892568 25.2816728,30.7328904 L25.2006974,4.52577327 L17.9274034,4.52577327 Z" id="Fill-1" fill="#585858" mask="url(#mask-2)"></path>
        </g>
    </g>
</svg>