<svg>
    <symbol id="home" viewBox="0 0 33 31" version="1.1">
        <g transform="translate(-1432.000000, -24.000000)">
            <g transform="translate(1432.000000, 22.000000)">
                <g transform="translate(0.000000, 2.000000)">
                    <g>
                        <path d="M31.9092451,14.32215 L27.2138907,18.6327 C26.495214,19.2816 26.1598316,20.2086 26.3514787,21.1356 L27.5492732,27.30015 C27.8367439,28.8297 26.7826847,30.26655 25.2495078,30.54465 C25.1057724,30.591 24.9141253,30.591 24.77039,30.591 C24.2912722,30.591 23.8121544,30.45195 23.3809484,30.2202 L17.8710937,27.2538 C17.0086817,26.7903 15.9546226,26.7903 15.0922105,27.2538 L9.58235588,30.2202 C9.15114988,30.45195 8.67203207,30.591 8.19291429,30.591 C7.57006115,30.591 6.9951198,30.4056 6.51600202,30.0348 C5.6056782,29.43225 5.1744722,28.31985 5.3661193,27.2538 L6.56391379,21.08925 C6.75556092,20.16225 6.42017847,19.1889 5.70150175,18.58635 L1.00614736,14.2758 C-0.143735355,13.20975 -0.19164713,11.44845 0.910323813,10.33605 C1.34152982,9.87254999 1.96438295,9.59445002 2.63514786,9.50175 L8.95950275,8.71379999 C9.96565011,8.62109999 10.7801504,8.01854999 11.2113564,7.13789999 L13.894416,1.62224999 C14.565181,0.231749977 16.2420932,-0.370800024 17.6794466,0.278100003 C18.3022998,0.556200005 18.7814175,1.01969999 19.0688882,1.62224999 L21.7519479,7.23060001 C22.1352421,8.11125001 22.9976541,8.71380002 24.0038015,8.80650001 L30.3281564,9.59444999 C31.9092451,9.77985 33.011216,11.17035 32.8195689,12.6999 C32.6758336,13.30245 32.3883629,13.85865 31.9092451,14.32215 Z M30.3760682,12.1437 C30.3281564,11.9583 30.184421,11.81925 29.9927739,11.81925 L23.6684191,11.0313 C21.8477714,10.8459 20.3145945,9.73350001 19.5959178,8.11125001 L16.9128581,2.59559999 C16.8170346,2.36384998 16.5295639,2.27114999 16.290005,2.36385001 C16.1941815,2.4102 16.0983579,2.50289999 16.0504461,2.59559999 L13.3673865,8.20395001 C12.600798,9.77985 11.0676211,10.89225 9.24697343,11.124 L2.97053031,11.81925 C2.73097141,11.8656 2.53932431,12.09735 2.53932431,12.3291 C2.53932431,12.4218 2.58723608,12.5145 2.68305963,12.6072 L7.37841402,16.91775 C8.67203207,18.0765 9.24697343,19.8378 8.91159097,21.55275 L7.71379648,27.7173 C7.6658847,27.9027 7.76170825,28.0881 7.90544361,28.1808 C8.00126716,28.22715 8.09709074,28.2735 8.19291429,28.2735 C8.28873784,28.2735 8.33664961,28.22715 8.43247319,28.1808 L13.894416,25.26075 C15.4755048,24.3801 17.4398877,24.3801 19.0209764,25.26075 L24.5308311,28.22715 C24.6266546,28.2735 24.6745664,28.2735 24.77039,28.31985 C24.8662135,28.31985 24.9620371,28.2735 25.0578606,28.22715 C25.201596,28.13445 25.2974195,27.94905 25.2495078,27.76365 L24.0517133,21.5991 C23.7163308,19.88415 24.2912722,18.1692 25.5848902,16.9641 L30.2802446,12.65355 C30.4239799,12.5145 30.4718917,12.3291 30.3760682,12.1437 Z" id="Shape" fill-rule="nonzero"></path>
                        <path d="M16.721211,21.0429 C16.2420932,21.5064 15.4755048,21.5064 15.0442988,21.0429 L11.30718,17.4276 C10.875974,16.9641 10.875974,16.2225 11.3550917,15.80535 C11.8342095,15.3882 12.5049745,15.3882 12.9840922,15.80535 L15.858799,18.58635 L21.4644772,13.1634 C21.943595,12.74625 22.7101835,12.74625 23.1413895,13.20975 C23.5725955,13.67325 23.5725955,14.32215 23.1413895,14.78565 L16.721211,21.0429 Z" id="Path"></path>
                    </g>
                </g>
            </g>
        </g>
    </symbol>
    <symbol id="classify" viewBox="0 0 29 29" version="1.1">
        <g transform="translate(-122.000000, -13.000000)">
            <g transform="translate(111.000000, 2.000000)">
                <g transform="translate(11.000000, 11.000000)">
                    <path d="M9.7357143,13.2571429 L3.52142857,13.2571429 C1.5742857,13.2571429 0,11.6828571 0,9.7357143 L0,3.52142857 C0,1.5742857 1.5742857,0 3.52142857,0 L9.7357143,0 C11.6828571,0 13.2571429,1.5742857 13.2571429,3.52142857 L13.2571429,9.7357143 C13.2571429,11.6828572 11.6828572,13.2571429 9.7357143,13.2571429 Z M3.52142857,2.07142857 C2.7342857,2.07142857 2.07142857,2.7342857 2.07142857,3.52142857 L2.07142857,9.7357143 C2.07142857,10.5228571 2.7342857,11.1857143 3.52142857,11.1857143 L9.7357143,11.1857143 C10.5228572,11.1857143 11.1857143,10.5228572 11.1857143,9.7357143 L11.1857143,3.52142857 C11.1857143,2.7342857 10.5228571,2.07142857 9.7357143,2.07142857 L3.52142857,2.07142857 Z M25.4785714,13.2571429 L19.2642857,13.2571429 C17.3171428,13.2571429 15.7428571,11.6828572 15.7428571,9.7357143 L15.7428571,3.52142857 C15.7428571,1.5742857 17.3171429,0 19.2642857,0 L25.4785714,0 C27.4257143,0 29,1.5742857 29,3.52142857 L29,9.7357143 C29,11.6828572 27.4257143,13.2571429 25.4785714,13.2571429 Z M19.2642857,2.07142857 C18.4771429,2.07142857 17.8142857,2.7342857 17.8142857,3.52142857 L17.8142857,9.7357143 C17.8142857,10.5228572 18.4771428,11.1857143 19.2642857,11.1857143 L25.4785714,11.1857143 C26.2657143,11.1857143 26.9285714,10.5228572 26.9285714,9.7357143 L26.9285714,3.52142857 C26.9285714,2.7342857 26.2657143,2.07142857 25.4785714,2.07142857 L19.2642857,2.07142857 Z M9.7357143,29 L3.52142857,29 C1.5742857,29 0,27.4257143 0,25.4785714 L0,19.2642857 C0,17.3171429 1.5742857,15.7428571 3.52142857,15.7428571 L9.7357143,15.7428571 C11.6828572,15.7428571 13.2571429,17.3171428 13.2571429,19.2642857 L13.2571429,25.4785714 C13.2571429,27.4257143 11.6828572,29 9.7357143,29 Z M3.52142857,17.8142857 C2.7342857,17.8142857 2.07142857,18.4771429 2.07142857,19.2642857 L2.07142857,25.4785714 C2.07142857,26.2657143 2.7342857,26.9285714 3.52142857,26.9285714 L9.7357143,26.9285714 C10.5228572,26.9285714 11.1857143,26.2657143 11.1857143,25.4785714 L11.1857143,19.2642857 C11.1857143,18.4771428 10.5228572,17.8142857 9.7357143,17.8142857 L3.52142857,17.8142857 Z" id="Shape"></path>
                    <path d="M22.3714286,29 C18.7257143,29 15.7428571,26.0171429 15.7428571,22.3714286 C15.7428571,18.7257143 18.7257143,15.7428571 22.3714286,15.7428571 C26.0171429,15.7428571 29,18.7257143 29,22.3714286 C29,26.0171429 26.0171429,29 22.3714286,29 Z M22.3714286,17.8142857 C19.8442857,17.8142857 17.8142857,19.8442857 17.8142857,22.3714286 C17.8142857,24.8985714 19.8442857,26.9285714 22.3714286,26.9285714 C24.8985714,26.9285714 26.9285714,24.8985714 26.9285714,22.3714286 C26.9285714,19.8442857 24.8985714,17.8142857 22.3714286,17.8142857 Z" id="Shape"></path>
                </g>
            </g>
        </g>
    </symbol>
    <symbol id="dynamic" viewBox="0 0 30 33" version="1.1">
        <g transform="translate(-1491.000000, -22.000000)">
            <g transform="translate(1432.000000, 22.000000)">
                <g transform="translate(59.000000, 0.000000)">
                    <path d="M27.5138026,26.1239773 L16.5837172,32.3318942 C15.3896742,33.0320352 13.9660076,33.0320352 12.7719647,32.3318942 L1.88780407,26.1239773 C0.73968587,25.4238363 0.00489021724,24.1635825 0.00489021724,22.7633004 L0.00489021724,10.2541144 C0.00489021724,8.90050842 0.693761132,7.64025459 1.88780407,6.94011359 L12.8178894,0.732196607 C14.0119324,0.0320556098 15.435599,0.0320556098 16.6296419,0.732196607 L27.5597273,6.94011359 C28.7078455,7.64025459 29.4426412,8.90050842 29.4426412,10.2541144 L29.4426412,22.7633004 C29.3967164,24.1635825 28.6619208,25.4238363 27.5138026,26.1239773 Z M27.0545553,10.2541144 C27.0545553,9.74067762 26.7790069,9.22724089 26.3197596,8.99386054 L15.435599,2.73926751 C14.9763517,2.45921111 14.425255,2.45921111 13.9660077,2.73926751 L3.0359223,8.99386054 C2.57667502,9.27391694 2.30112665,9.74067762 2.30112662,10.2541144 L2.30112662,22.7633004 C2.30112662,23.2767372 2.57667499,23.7901739 3.0359223,24.0702303 L13.9660077,30.2781473 C14.425255,30.5582037 14.9763517,30.5582037 15.435599,30.2781473 L26.3656844,24.0702303 C26.8249316,23.7901739 27.10048,23.3234132 27.10048,22.7633004 L27.10048,10.2541144 L27.0545553,10.2541144 Z" id="Shape"></path>
                    <path d="M14.7926528,22.436568 C11.4860723,22.436568 8.82243808,19.7293561 8.82243808,16.3686792 C8.82243808,13.0080023 11.4860723,10.3007904 14.7926528,10.3007904 C18.0992332,10.3007904 20.7628675,13.0080023 20.7628675,16.3686792 C20.7628675,19.7293561 18.0992332,22.436568 14.7926528,22.436568 Z M14.7926528,12.6345938 C12.7719647,12.6345938 11.1186745,14.3149322 11.1186745,16.3686792 C11.1186745,18.4224262 12.7719647,20.1027646 14.7926528,20.1027646 C16.8133408,20.1027645 18.4666311,18.4224261 18.4666311,16.3686792 C18.4666311,14.3149323 16.8592656,12.6345938 14.7926528,12.6345938 Z" id="Shape"></path>
                </g>
            </g>
        </g>
    </symbol>
    <symbol id="cart" viewBox="0 0 33 31" version="1.1">
        <g transform="translate(-1548.000000, -24.000000)">
            <g transform="translate(1432.000000, 22.000000)">
                <g transform="translate(116.000000, 2.000000)">
                    <path d="M32.7934788,7.89159131 L32.7934788,7.98026088 L30.0870019,21.2806956 C29.7712463,23.0097522 28.4631158,24.8274783 26.2979342,24.8274783 L11.9084985,24.8274783 C9.69820899,24.8274783 8.39007848,23.0097522 8.11943081,21.2363609 C8.11943081,21.2363609 5.41295388,3.81279129 5.41295388,3.76845654 C5.41295388,2.92609565 4.69122669,2.21673914 3.83417567,2.21673914 L1.12769871,2.21673914 C0.496187448,2.21673914 0,1.72905653 0,1.10836956 C0,0.487682588 0.496187448,0 1.12769871,0 L3.83417567,0 C5.90914133,0 7.57813544,1.64038696 7.66835131,3.63545219 L10.3748282,20.8816826 C10.4199362,21.0590217 10.6905839,22.6107391 11.9536064,22.6107391 L26.3430422,22.6107391 C27.2903091,22.6107391 27.8316045,21.5910391 27.9218204,20.8816826 L27.9218204,20.8373478 L30.6282973,7.58124782 C30.6734052,7.27090434 30.5831893,6.96056086 30.4027575,6.69455219 C30.0418939,6.33987392 29.5457065,6.16253478 29.0495191,6.20686957 L14.6600834,6.20686957 C14.0285721,6.20686957 13.5323847,5.71918695 13.5323847,5.09850001 C13.5323846,4.47781307 14.0736801,3.99013042 14.6600834,3.99013042 L28.9593032,3.99013042 C30.0870019,3.94579564 31.2147006,4.38914347 31.9815358,5.23150436 C32.658155,5.98519568 32.9739106,6.96056089 32.7934788,7.89159131 Z" id="Path"></path>
                    <path d="M14.9307311,27.0442174 C15.9231059,27.0442174 16.735049,27.8422435 16.735049,28.8176087 C16.735049,29.7929739 15.923106,30.591 14.9307311,30.591 C13.9383562,30.591 13.1264131,29.7929739 13.1264131,28.8176087 C13.1264132,27.8422435 13.9383562,27.0442174 14.9307311,27.0442174 Z M23.9523209,27.0442174 C24.9446957,27.0442174 25.7566388,27.8422435 25.7566388,28.8176087 C25.7566388,29.7929739 24.9446957,30.591 23.9523209,30.591 C22.959946,30.591 22.1480029,29.7929739 22.1480029,28.8176087 C22.1480029,27.8422435 22.959946,27.0442174 23.9523209,27.0442174 Z" id="Shape" fill-rule="nonzero"></path>
                </g>
            </g>
        </g>
    </symbol>
    <symbol id="center" viewBox="0 0 25 33" version="1.1">
        <g transform="translate(-1611.000000, -22.000000)">
            <g transform="translate(1432.000000, 22.000000)">
                <g transform="translate(179.000000, 0.000000)">
                    <path d="M16.8107942,25.4604459 C18.761426,26.9047434 19.9235045,29.2243728 19.9235045,31.7628352 C19.9235045,32.3755675 19.4669736,32.857 18.8859344,32.857 C18.3048952,32.857 17.8483643,32.3755675 17.8483643,31.7628352 C17.8483643,28.7429403 15.5242074,26.2920111 12.6605139,26.2920111 C9.7968205,26.2920111 7.47266351,28.7429403 7.47266351,31.7628352 C7.47266351,32.3755675 7.01613267,32.857 6.43509344,32.857 C5.85405421,32.857 5.39752334,32.3755675 5.39752334,31.7628352 C5.39752334,29.311906 6.51809903,26.9922766 8.38572517,25.5917457 C1.91128787,23.2283497 -1.53344478,15.7442623 0.707706591,8.87290729 C2.94885797,2.04531886 10.0043345,-1.5873083 16.5202746,0.776087693 C23.0362148,3.13948369 26.4809474,10.623571 24.239796,17.4511594 C22.9947119,21.1713198 20.2970297,24.1036815 16.8107942,25.4604459 Z M12.4529999,2.22038525 C6.72561305,2.22038525 2.0772991,7.1222436 2.0772991,13.1620334 C2.0772991,19.2018231 6.72561305,24.1036815 12.4529999,24.1036815 C18.1803868,24.1036815 22.8287007,19.2018231 22.8287007,13.1620334 C22.8287007,7.1222436 18.1803868,2.22038525 12.4529999,2.22038525 Z" id="Shape" fill-rule="nonzero"></path>
                    <path d="M16.3542634,18.4577911 C14.0716092,19.9896218 11.166413,19.9458552 8.88375881,18.3702579 C8.38572517,18.0201251 8.26121676,17.3198597 8.55173641,16.7946606 C8.84225602,16.2694614 9.42329527,16.0943951 9.92132891,16.4007612 L9.96283171,16.4445278 C11.581441,17.5386926 13.6565812,17.5824592 15.2751905,16.4882944 C15.7317214,16.1819282 16.3542634,16.313228 16.644783,16.8384271 L16.6862858,16.8821937 C16.9768054,17.4511594 16.8107942,18.1514249 16.3542634,18.4577911 Z" id="Path"></path>
                </g>
            </g>
        </g>
    </symbol>
    <symbol id="choice" viewBox="0 0 18 18" version="1.1">
        <g transform="translate(-323.000000, -420.000000)">
            <path d="M332,420 C327.029451,420 323,424.029451 323,429 C323,433.970584 327.029451,438 332,438 C336.970584,438 341,433.970584 341,429 C341,424.029451 336.970549,420 332,420 Z M337.162186,426.665502 L331.3414,432.486305 L331.341242,432.48648 C331.072895,432.754898 330.663711,432.796805 330.35133,432.612305 C330.292241,432.57733 330.237789,432.535056 330.18926,432.48648 C330.189225,432.48641 330.189154,432.486375 330.189154,432.486375 L326.83785,429.13507 C326.401191,428.698412 326.349072,428.471848 326.667166,428.153684 C326.957715,427.863135 327.307133,428.038564 327.98985,428.721281 L330.765295,431.496727 L336.010203,426.251818 C336.656885,425.605137 337.003367,425.354648 337.369713,425.720994 C337.687719,426.039088 337.480262,426.347408 337.162186,426.665502 Z"></path>
        </g>
    </symbol>
    <symbol id="logistics" viewBox="0 0 26 18" version="1.1">
        <g transform="translate(-35.000000, -124.000000)">
            <g transform="translate(0.000000, 100.000000)">
                <g transform="translate(35.000000, 18.000000)">
                    <path d="M23.9038275,16.4981763 C23.7567162,16.5059366 23.585257,16.510034 23.3890339,16.510034 L18.879551,16.510034 C18.7652022,16.510034 18.6508214,16.4545017 18.5364726,16.3435613 C18.4221238,16.2324968 18.3648854,16.1374183 18.3648854,16.0581397 L18.3648854,16.0343623 C18.3486322,15.2576244 18.3402496,14.5522807 18.3402496,13.9179898 L18.3402496,11.7543419 C18.3402496,11.5798606 18.4139972,11.4173922 18.5609805,11.2669057 C18.7079318,11.116326 18.8876777,11.0411448 19.100122,11.0411448 C19.1165032,11.0411448 19.2389787,11.0330121 19.4678043,11.0172433 C19.6965339,11.0013813 19.9783745,11.013239 20.3134223,11.0529093 C20.648374,11.0924245 21.0036744,11.1797427 21.3794833,11.3144294 C21.7551962,11.4491471 22.1064972,11.6671788 22.4333224,11.9683693 C22.9398613,12.4757027 23.299289,13.0899722 23.5116373,13.8111778 C23.7241136,14.5323835 23.9203367,15.2813708 24.0997946,16.0581397 C24.0997946,16.0897705 24.1040499,16.1135478 24.1121765,16.1294408 C24.1203031,16.1453027 24.1243025,16.1692043 24.1243025,16.200835 C24.1243984,16.391085 24.0509388,16.4901678 23.9038275,16.4981763 Z M25.8277605,16.7834738 C25.705157,15.8877869 25.4886814,14.9722959 25.1782375,14.0369698 C24.8676657,13.1017367 24.4021118,12.2219118 23.7812241,11.3977433 C23.4381457,10.9379646 23.013353,10.5416958 22.506686,10.2088436 C22.0028986,9.87735717 21.4598538,9.60587295 20.8891976,9.40031972 C20.3172936,9.19420776 19.737263,9.04772547 19.1490098,8.9604383 C18.5608525,8.87336841 17.9970752,8.85347116 17.4579017,8.90111903 C17.2783159,8.91688783 17.1270773,9.03984107 17.0044738,9.26960625 C16.8819984,9.49940246 16.8207607,9.70154118 16.8207607,9.87589825 L16.8207607,21.3370272 C16.8207607,21.6223557 16.9268549,21.868138 17.1393312,22.0741258 C17.3518075,22.2801447 17.604885,22.3832006 17.8990756,22.3832006 L18.3402496,22.3832006 C18.3402496,21.9869628 18.4178685,21.6103428 18.5731065,21.2538685 C18.7284404,20.8971147 18.9407887,20.5841598 19.2103755,20.3146312 C19.4800582,20.0451956 19.7944054,19.8309509 20.1539611,19.67258 C20.5133887,19.5139917 20.9054509,19.4346821 21.3302436,19.4346821 C21.7551962,19.4346821 22.1594803,19.4903385 22.5435439,19.6011547 C22.9274794,19.7121262 23.2625591,19.8864832 23.5482712,20.124257 C23.8343351,20.3620307 24.0630327,20.6712297 24.2346519,21.0516056 C24.4061111,21.4321057 24.4918567,21.8918843 24.4918567,22.4307554 L25.496808,22.4307554 C25.5947756,22.4307554 25.6725225,22.3832006 25.7297609,22.2881532 C25.7867433,22.1929816 25.8358871,22.0780059 25.8766163,21.943195 C25.9171215,21.8111468 25.9457247,21.6759324 25.9624898,21.5390418 C25.9788391,21.404324 25.9869657,21.2893793 25.9869657,21.1942078 C25.9869657,20.7028915 25.991093,20.0687247 25.9992197,19.2918626 C26.0074743,18.515342 25.9502359,17.6791607 25.8276325,16.7834738 L25.8277605,16.7834738 Z M21.452847,20.9327808 C21.8776717,20.9327808 22.2453539,21.0832674 22.5557978,21.384582 C22.8662417,21.6857724 23.0214796,22.0422467 23.0214796,22.4545017 C23.0214796,22.8825255 22.8662417,23.2470395 22.5557978,23.5481057 C22.2453539,23.8495445 21.8777996,24 21.452847,24 C21.011801,24 20.6399915,23.8494203 20.3378022,23.5481057 C20.035485,23.2470395 19.8843743,22.8824013 19.8843743,22.4545017 C19.8843743,22.0422467 20.035485,21.6857724 20.3378022,21.384582 C20.6399915,21.0832674 21.0116731,20.9327808 21.452847,20.9327808 Z M4.59094201,20.9090034 C4.14976808,20.9090034 3.7779585,21.05949 3.47576924,21.3606804 C3.17342,21.6618708 3.02234137,22.0263538 3.02234137,22.4545017 C3.02234137,22.8665394 3.17342,23.2232621 3.47576924,23.5245767 C3.7779585,23.8257671 4.14976808,23.9763778 4.59094201,23.9763778 C5.03211594,23.9763778 5.40379753,23.8257671 5.70611478,23.5245767 C6.00846401,23.2232621 6.15941467,22.8665394 6.15941467,22.4545017 C6.15941467,22.0266021 6.00833604,21.6618708 5.70611478,21.3606804 C5.40379753,21.05949 5.03211594,20.9090034 4.59094201,20.9090034 Z M10.8523867,6 C9.0815369,6 4.25467464,6 2.0095947,6 C-0.235485248,6 0.00771150881,8.7345222 0.00771150881,9.11502227 L0.00771150881,21.4796294 C0.00771150881,21.7808198 0.0975844196,22.0107091 0.277298247,22.1692043 C0.457140052,22.3276684 0.685837655,22.406978 0.963551028,22.406978 L1.52732837,22.406978 C1.52732837,21.3924353 1.79291578,20.6354705 2.32383464,20.1362698 C2.85472151,19.6368208 3.61872124,19.3870342 4.61532192,19.3870342 C5.66113033,19.3870342 6.42912939,19.6565939 6.91919111,20.1956822 C7.40934881,20.7346464 7.65455564,21.4718691 7.65455564,22.406978 L14.3453043,22.406978 C14.6068924,22.406978 14.8313347,22.319784 15.0193031,22.1454269 C15.2071436,21.9710698 15.3011438,21.7491891 15.3011438,21.4796294 L15.25216,6 L10.8523867,6 Z" id="Fill-1"></path>
                </g>
            </g>
        </g>
    </symbol>
    <symbol id="location" viewBox="0 0 16 22" version="1.1">
        <g transform="translate(-40.000000, -191.000000)">
            <g transform="translate(0.000000, 100.000000)">
                <g transform="translate(40.000000, 85.000000)">
                    <g transform="translate(0.000000, 6.000000)">
                        <ellipse class="oval" fill="#D8D8D8" cx="8" cy="20.5" rx="8" ry="1.5"></ellipse>
                        <path d="M8,20 C3.33333333,13.7601338 1,9.37831441 1,6.8545418 C1,3.0688829 4.13400675,4.61852778e-14 8,4.61852778e-14 C11.8659932,4.61852778e-14 15,3.0688829 15,6.8545418 C15,9.37831441 12.6666667,13.7601338 8,20 Z M8,10.2818127 C9.93299662,10.2818127 11.5,8.74737126 11.5,6.8545418 C11.5,4.96171235 9.93299662,3.4272709 8,3.4272709 C6.06700338,3.4272709 4.5,4.96171235 4.5,6.8545418 C4.5,8.74737126 6.06700338,10.2818127 8,10.2818127 Z" class="svgAddress" fill="#D0021B"></path>
                    </g>
                </g>
            </g>
        </g>
    </symbol>
    <symbol id="video" viewBox="0 0 46 46" version="1.1">
        <g transform="translate(-166.000000, -775.000000)">
            <g transform="translate(0.000000, 688.000000)">
                <g transform="translate(166.000000, 87.000000)">
                    <path d="M22.9776732,45.9999439 C10.3070293,45.9999439 0,35.6929146 0,23.0225512 C0,10.3519073 10.3070293,0.0448780488 22.9776732,0.0448780488 C35.6480366,0.0448780488 45.9550659,10.3519073 45.9550659,23.0225512 C45.9550659,35.6929146 35.6480366,45.9999439 22.9776732,45.9999439 Z M22.9776732,3.32748293 C12.0796,3.32748293 3.28260488,12.124478 3.28260488,23.0225512 C3.28260488,33.9203439 12.0796,42.7175634 22.9776732,42.7175634 C33.8754659,42.7175634 42.6727415,33.9203439 42.6727415,23.0225512 C42.6727415,12.124478 33.8754659,3.32748293 22.9776732,3.32748293 Z" ></path>
                    <path d="M18.3163024,13.8315268 C17.5285244,13.8315268 16.8720146,14.4878122 16.8720146,15.2758146 L16.8720146,30.7692317 C16.8720146,31.5570098 17.5285244,32.2135195 18.3163024,32.2135195 C18.5790073,32.2135195 18.8415439,32.1478293 19.1043049,32.016561 L31.708922,24.2698244 C32.3654317,23.8757951 32.6281927,22.9568049 32.1686415,22.3002951 C32.0372049,22.1032805 31.9059366,21.9064902 31.708922,21.8407439 L19.1043049,14.0283171 C18.8415439,13.8970488 18.5790073,13.8315268 18.3163024,13.8315268 Z"></path>
                </g>
            </g>
        </g>
    </symbol>
    <symbol id="service" viewBox="0 0 23 35" version="1.1">
            <g transform="translate(-19.000000, -3055.000000)" fill="none">
                <g transform="translate(0.000000, 3043.000000)">
                    <g  transform="translate(19.000000, 13.000000)">
                        <text font-family="PingFangSC-Regular, PingFang SC" font-size="8" font-weight="normal" letter-spacing="0.3764706" fill="#9B9B9B">
                            <tspan x="3.1235294" y="33">客服</tspan>
                        </text>
                        <rect fill="#9B9B9B" x="0" y="9.5" width="2" height="5" rx="1"></rect>
                        <path d="M11.5,22 C17.5751322,22 22.5,17.0751322 22.5,11 C22.5,4.92486775 17.5751322,0 11.5,0 C5.42486775,0 0.5,4.92486775 0.5,11" stroke="#9B9B9B"></path>
                        <circle stroke="#9B9B9B" stroke-width="2" cx="11.5" cy="11" r="7.5"></circle>
                        <rect fill="#9B9B9B" x="21" y="9.5" width="2" height="5" rx="1"></rect>
                        <circle fill="#9B9B9B" cx="11.75" cy="21.75" r="1.25"></circle>
                        <path d="M14.6044464,14.9890995 C12.7097752,16.3692017 10.2983754,16.3297702 8.40370419,14.9102366 C7.99032138,14.5947847 7.88697568,13.9638808 8.12811567,13.490703 C8.36925563,13.0175251 8.85153559,12.8597992 9.2649184,13.1358196 L9.29936696,13.175251 C10.6428611,14.1610383 12.3652895,14.2004698 13.7087836,13.2146825 C14.0877179,12.9386621 14.6044464,13.0569566 14.8455864,13.5301345 L14.8800349,13.5695659 C15.1211749,14.0821753 14.9833806,14.7130791 14.6044464,14.9890995 Z" fill="#9B9B9B"></path>
                    </g>
                </g>
            </g>
        </g>
    </symbol>
    <symbol id="cart01" viewBox="0 0 28 34" version="1.1">
        <g transform="translate(-61.000000, -3056.000000)" fill="#9B9B9B">
            <g transform="translate(0.000000, 3043.000000)">
                <g transform="translate(61.000000, 13.000000)">
                    <text font-family="PingFangSC-Regular, PingFang SC" font-size="8" font-weight="normal" letter-spacing="0.3764706">
                        <tspan x="2.9352941" y="33">购物车</tspan>
                    </text>
                    <path d="M24.9516685,5.93333334 L24.9516685,6 L22.8923836,16 C22.6521337,17.3 21.6568127,18.6666667 20.0093848,18.6666667 L9.06085347,18.6666667 C7.37910414,18.6666667 6.38378312,17.3 6.17785465,15.9666667 C6.17785465,15.9666667 4.11856977,2.86666666 4.11856977,2.83333334 C4.11856977,2.2 3.56942713,1.66666668 2.91732026,1.66666668 L0.858035361,1.66666668 C0.377535569,1.66666668 0,1.3 0,0.833333327 C0,0.366666651 0.377535569,0 0.858035361,0 L2.91732026,0 C4.49610534,0 5.76599769,1.23333333 5.83464049,2.73333334 L7.89392537,15.7 C7.92824679,15.8333333 8.13417528,17 9.09517488,17 L20.0437062,17 C20.7644559,17 21.1763129,16.2333333 21.2449557,15.7 L21.2449557,15.6666667 L23.3042406,5.7 C23.338562,5.46666666 23.2699191,5.23333332 23.1326335,5.03333334 C22.8580622,4.76666667 22.4805266,4.63333333 22.102991,4.66666667 L11.1544598,4.66666667 C10.67396,4.66666667 10.2964244,4.29999999 10.2964244,3.83333334 C10.2964244,3.36666669 10.7082814,2.99999999 11.1544598,2.99999999 L22.0343482,2.99999999 C22.8923836,2.96666666 23.750419,3.3 24.333883,3.93333334 C24.8487042,4.50000002 25.0889541,5.23333335 24.9516685,5.93333334 Z" ></path>
                    <path d="M11.3603883,20.3333333 C12.1154594,20.3333333 12.7332448,20.9333333 12.7332448,21.6666667 C12.7332448,22.4 12.1154594,23 11.3603883,23 C10.6053171,23 9.98753166,22.4 9.98753168,21.6666667 C9.98753171,20.9333333 10.6053171,20.3333333 11.3603883,20.3333333 Z M18.2246712,20.3333333 C18.9797423,20.3333333 19.5975278,20.9333333 19.5975278,21.6666667 C19.5975278,22.4 18.9797423,23 18.2246712,23 C17.4696001,23 16.8518146,22.4 16.8518146,21.6666667 C16.8518146,20.9333333 17.4696001,20.3333333 18.2246712,20.3333333 Z"></path>
                </g>
            </g>
        </g>
    </symbol>
    <!-- <symbol id="collection" viewBox="0 0 17 34" version="1.1">
        <g transform="translate(-113.000000, -3056.000000)">
            <g transform="translate(0.000000, 3043.000000)">
                <g transform="translate(113.000000, 13.000000)">
                    <text font-family="PingFangSC-Regular, PingFang SC" font-size="8" font-weight="normal" letter-spacing="0.3764706">
                        <tspan x="0.1235294" y="33">收藏</tspan>
                    </text>
                    <g id="shoucang">
                        <mask id="mask-2" fill="white">
                            <use xlink:href="#path-1"></use>
                        </mask>
                        <path d="M15.1528455,1.87213902 L15.1528455,20.3820207 L10.6566456,16.440209 L8.49167967,14.5549132 L6.32687639,16.440209 L1.83051382,20.3820207 L1.83051382,1.87213902 L15.1528455,1.87213902 Z M14.1528455,0 L2.83051382,0 C1.27370081,0 0,1.29243171 0,2.87213902 L0,21.5414634 C0,22.4030939 0.707697561,22.9775329 1.41525691,22.9775329 C1.69836911,22.9775329 1.98139837,22.8338951 2.26451057,22.6903695 L8.49167967,17.2331146 L14.7189593,22.6903695 C15.0019886,22.9775329 15.2851008,22.9775329 15.5681024,22.9775329 C16.2758,22.9775329 16.9833593,22.4030939 16.9833593,21.5414634 L16.9833593,2.87213902 C16.9833593,1.29243171 15.7096585,0 14.1528455,0 Z" id="Fill-1" fill="#9B9B9B" mask="url(#mask-2)"></path>
                        <path d="M4,5.5 L13,5.5" stroke="#979797" stroke-width="2" stroke-linecap="round" stroke-linejoin="round" mask="url(#mask-2)"></path>
                    </g>
                </g>
            </g>
        </g>
    </symbol> -->
    <symbol id="collection" viewBox="0 0 17 34" version="1.1">
        <g transform="translate(-113.000000, -3056.000000)">
            <g transform="translate(0.000000, 3043.000000)">
                <g transform="translate(113.000000, 13.000000)">
                    <text font-family="PingFangSC-Regular, PingFang SC" font-size="8" font-weight="normal" letter-spacing="0.3764706">
                        <tspan x="0.1235294" y="33">收藏</tspan>
                    </text>
                    <g id="shoucang">
                        <mask id="mask-2">
                            <use xlink:href="#path-1"></use>
                        </mask>
                        <path d="M15.1528455,1.87213902 L15.1528455,20.3820207 L10.6566456,16.440209 L8.49167967,14.5549132 L6.32687639,16.440209 L1.83051382,20.3820207 L1.83051382,1.87213902 L15.1528455,1.87213902 Z M14.1528455,0 L2.83051382,0 C1.27370081,0 0,1.29243171 0,2.87213902 L0,21.5414634 C0,22.4030939 0.707697561,22.9775329 1.41525691,22.9775329 C1.69836911,22.9775329 1.98139837,22.8338951 2.26451057,22.6903695 L8.49167967,17.2331146 L14.7189593,22.6903695 C15.0019886,22.9775329 15.2851008,22.9775329 15.5681024,22.9775329 C16.2758,22.9775329 16.9833593,22.4030939 16.9833593,21.5414634 L16.9833593,2.87213902 C16.9833593,1.29243171 15.7096585,0 14.1528455,0 Z" id="Fill-1" mask="url(#mask-2)"></path>
                        <path d="M4,5.5 L13,5.5" stroke-width="2" stroke-linecap="round" stroke-linejoin="round" mask="url(#mask-2)"></path>
                    </g>
                </g>
            </g>
        </g>
    </symbol>
    <symbol id="search" viewBox="0 0 27 27" version="1.1">
        <g transform="translate(-1186.000000, -34.000000)">
            <g transform="translate(660.000000, 20.000000)">
                <g transform="translate(526.000000, 14.000000)">
                    <path d="M11.3684211,22.7368421 C5.07518796,22.7368421 0,17.6616541 0,11.3684211 C0,5.07518796 5.07518796,0 11.3684211,0 C17.6616541,0 22.7368421,5.07518796 22.7368421,11.3684211 C22.7368421,17.6616541 17.6616541,22.7368421 11.3684211,22.7368421 Z M11.3684211,2.0300752 C6.21203007,2.0300752 2.0300752,6.21203007 2.0300752,11.3684211 C2.0300752,16.524812 6.21203007,20.7067669 11.3684211,20.7067669 C16.524812,20.7067669 20.7067669,16.524812 20.7067669,11.3684211 C20.7067669,6.21203007 16.524812,2.0300752 11.3684211,2.0300752 Z" id="Shape" fill-rule="nonzero"></path>
                    <path d="M26.7156408,26.7198976 C26.3429519,27.0933675 25.7466497,27.0933675 25.4112297,26.7198976 L20.1563167,21.4539733 C19.7836278,21.0805035 19.8208967,20.4829518 20.1935856,20.146829 C20.5662744,19.8107061 21.1253077,19.8107061 21.4979966,20.146829 L26.7529096,25.4127533 C27.0883296,25.7488761 27.0883296,26.3464278 26.7156408,26.7198976 Z" id="Path"></path>
                </g>
            </g>
        </g>
    </symbol>
    <symbol id="screen" viewBox="0 0 14 14" version="1.1">
        <g transform="translate(-1248.000000, -43.000000)">
            <g transform="translate(660.000000, 20.000000)">
                <path d="M596.547915,24.8918956 L601.327429,30.7335244 C602.026884,31.588414 601.90088,32.8484594 601.04599,33.5479146 C600.688666,33.8402708 600.241199,34 599.779514,34 L590.220486,34 C589.115916,34 588.220486,33.1045695 588.220486,32 C588.220486,31.5383153 588.380215,31.0908487 588.672571,30.7335244 L593.452085,24.8918956 C594.151541,24.037006 595.411586,23.9110015 596.266476,24.6104566 C596.369413,24.6946783 596.463693,24.788958 596.547915,24.8918956 Z" id="Triangle" transform="translate(595.000000, 28.500000) scale(1, -1) translate(-595.000000, -28.500000) "></path>
            </g>
        </g>
    </symbol>
    <symbol id="send" viewBox="0 0 65 12" version="1.1">
        <g transform="translate(-156.000000, -191.000000)" fill="#D12238">
            <g transform="translate(18.000000, 143.000000)">
                <g transform="translate(138.000000, 49.000000)">
                    <circle opacity="0.300000012" cx="12" cy="5" r="2"></circle>
                    <circle opacity="0.100000001" cx="1.5" cy="5" r="1.5"></circle>
                    <circle opacity="0.5" cx="23.5" cy="5" r="2.5"></circle>
                    <circle opacity="0.699999988" cx="36" cy="5" r="3"></circle>
                    <circle opacity="0.900000036" cx="49" cy="5" r="3"></circle>
                    <polygon stroke="#D12238" stroke-width="2" stroke-linecap="round" stroke-linejoin="round" points="59 0.5 64 4.97031845 59 9.50512695"></polygon>
                </g>
            </g>
        </g>
    </symbol>
    <symbol id="delete" viewBox="0 0 21 23" version="1.1">
        <g transform="translate(-316.000000, -386.000000)">
            <g transform="translate(18.000000, 143.000000)">
                <g transform="translate(298.000000, 243.000000)">
                    <path d="M20.1415778,4.64285714 L0.818763336,4.64285714 C0.360255873,4.64285714 0,4.28142858 0,3.82142858 C0,3.36142858 0.360255873,3 0.818763336,3 L20.1415778,3 C20.6000853,3 20.9603412,3.36142858 20.9603412,3.82142858 C20.9603412,4.28142858 20.6000853,4.64285714 20.1415778,4.64285714 Z M7.86012795,17.2928571 L7.86012795,11.7071429 C7.86012795,11.2471429 8.22038382,10.8857143 8.67889126,10.8857143 C9.1373987,10.8857143 9.4976546,11.2471429 9.4976546,11.7071429 L9.4976546,17.2928571 C9.4976546,17.7528571 9.13739872,18.1142857 8.67889126,18.1142857 C8.2203838,18.1142857 7.86012795,17.7528571 7.86012795,17.2928571 Z M11.7901919,17.2928571 L11.7901919,11.7071429 C11.7901919,11.2471429 12.1504478,10.8857143 12.6089552,10.8857143 C13.0674627,10.8857143 13.4277186,11.2471429 13.4277186,11.7071429 L13.4277186,17.2928571 C13.4277186,17.7528571 13.0674627,18.1142857 12.6089552,18.1142857 C12.1504478,18.1142857 11.7901919,17.7528571 11.7901919,17.2928571 Z M3.11130065,6.2857143 C3.56980811,6.2857143 3.93006399,6.64714288 3.93006396,7.10714286 L3.93006396,19.9214286 C3.93006396,20.5457143 4.45407249,21.0714286 5.07633262,21.0714286 L16.2115139,21.0714286 C16.833774,21.0714286 17.3577825,20.5457143 17.3577825,19.9214286 L17.3577825,7.10714286 C17.3577825,6.64714286 17.7180384,6.28571428 18.1765459,6.2857143 C18.6350533,6.28571432 18.9953092,6.64714288 18.9953092,7.10714286 L18.9953092,19.9214286 C18.9953092,21.4657143 17.7507889,22.7142857 16.2115139,22.7142857 L5.07633262,22.7142857 C3.53705758,22.7142857 2.29253731,21.4657143 2.29253731,19.9214286 L2.29253731,7.10714286 C2.29253731,6.64714286 2.65279319,6.2857143 3.11130065,6.2857143 Z" id="Shape" fill-rule="nonzero"></path>
                    <path d="M11.2925373,0 C12.5698081,0 13.5850746,1.01857142 13.5850746,2.3 L9,2.3 C9,1.01857142 10.0152665,0 11.2925373,0 Z"></path>
                </g>
            </g>
        </g>
    </symbol>
    <symbol id="dialog" viewBox="0 0 23 22" version="1.1">
        <g transform="translate(-39.000000, -387.000000)">
            <g transform="translate(18.000000, 143.000000)">
                <g transform="translate(21.000000, 244.000000)">
                    <path d="M11.4244041,22 C10.8006579,22 10.2097405,21.6666667 9.88145299,21.1 L7.91172815,19.2 L2.75761479,19.2 C1.24749241,19.2 0,17.9333333 0,16.4 L0,2.80000001 C0,1.26666667 1.21466366,0 2.75761479,0 L20.2225084,0 C21.7654596,0 22.9801232,1.26666667 22.9801232,2.80000001 L22.9801232,16.3666667 C22.9801232,17.9 21.7654596,19.1666667 20.2225084,19.1666667 L14.9042513,19.1666667 L12.9345265,21.0666667 C12.6390678,21.6666667 12.0481503,22 11.4244041,22 Z M2.75761479,1.66666668 C2.13386859,1.66666668 1.60860862,2.16666667 1.60860862,2.80000001 L1.60860862,16.3666667 C1.60860862,17 2.10103982,17.5333333 2.75761479,17.5333333 L8.37133061,17.5333333 C8.66678933,17.5333333 8.92941932,17.7 9.0607343,17.9333333 L11.2602604,20.2666667 C11.2930891,20.3333333 11.3915754,20.3666667 11.4900616,20.3333333 C11.5228904,20.3333333 11.5228904,20.3 11.5557191,20.2666667 L13.7552452,17.9333333 C13.8865602,17.6666667 14.1491901,17.5333333 14.4446489,17.5333333 L20.2225084,17.5333333 C20.8462546,17.5333333 21.3715146,17 21.3715146,16.3666667 L21.3715146,2.80000001 C21.3715146,2.16666667 20.8790834,1.63333335 20.2225084,1.63333332 L2.75761479,1.66666668 Z"></path>
                    <path d="M4.64143738,8 C5.56064231,8 6.28287476,8.73333333 6.28287474,9.66666668 C6.28287472,10.6 5.56064231,11.3333334 4.64143738,11.3333334 C3.72223246,11.3333334 3,10.6 3,9.66666668 C3,8.73333333 3.72223244,8 4.64143738,8 Z M11.2071869,8 C12.1263918,8 12.8486242,8.73333333 12.8486242,9.66666668 C12.8486242,10.6 12.1263918,11.3333334 11.2071869,11.3333334 C10.2879819,11.3333334 9.56574948,10.6 9.56574948,9.66666668 C9.56574948,8.73333333 10.2879819,8 11.2071869,8 Z M17.7729364,8 C18.6921413,8 19.4143737,8.73333333 19.4143737,9.66666668 C19.4143737,10.6 18.6921413,11.3333334 17.7729364,11.3333334 C16.8537314,11.3333334 16.131499,10.6 16.131499,9.66666668 C16.131499,8.73333333 16.8537314,8 17.7729364,8 Z"></path>
                </g>
            </g>
        </g>
    </symbol>
    <symbol id="like_01" viewBox="0 0 23 21" version="1.1">
        <g transform="translate(-77.000000, -388.000000)">
            <g transform="translate(18.000000, 143.000000)">
                <path d="M75.4875062,246.590575 C76.7949947,246.622382 78.0091038,247.162774 78.9430994,248.116353 C80.7486872,249.960051 80.9355465,252.789032 79.3478442,254.410232 L70.4752619,263.437774 L61.6338312,254.378425 C60.0461289,252.757328 60.2328628,249.928243 62.038576,248.084546 C62.9413197,247.130967 64.1865803,246.590575 65.4941692,246.558742 C66.5215444,246.558742 67.4866163,246.9402 68.2026011,247.671384 L70.5064135,250.023563 L72.8101256,247.671384 C73.4950591,246.972007 74.4912826,246.558742 75.4875062,246.590575 Z M75.4875062,245.001259 C74.0553862,244.969452 72.6855945,245.541574 71.689371,246.558742 L70.4752619,247.798536 L69.2611529,246.558742 C68.2337777,245.541574 66.8639609,244.969452 65.4630176,245.001259 C63.7819359,245.032964 62.1319304,245.732341 60.9488726,246.972007 C58.5206545,249.451467 58.3338203,253.265912 60.5442281,255.490964 L70.4752619,265.662826 L80.4374222,255.490964 C82.6166032,253.234104 82.4610209,249.419634 80.0327025,246.972007 C78.849745,245.732341 77.1997145,245.032964 75.4875062,245.001259 Z"></path>
            </g>
        </g>
    </symbol>
    <symbol id="like_02" viewBox="0 0 23 21" version="1.1">
        <g transform="translate(-77.000000, -685.000000)">
            <g transform="translate(18.000000, 441.000000)">
                <path d="M80.2819513,246.602976 C82.3715845,248.787577 82.5878396,252.139643 80.7503684,254.060607 L70.4819986,264.757359 L60.2496809,254.022918 C58.4122097,252.102076 58.6283196,248.749888 60.718098,246.565287 C61.7628566,245.435389 63.204015,244.795078 64.7173068,244.757359 C65.9063032,244.757359 67.0231951,245.209349 67.8518148,246.075731 L70.5180507,248.862833 L73.1841706,246.075731 C73.9768542,245.247037 75.1297983,244.757359 76.2827425,244.795078 C77.7959182,244.832767 79.2010244,245.473078 80.2819513,246.602976 Z"></path>
            </g>
        </g>
    </symbol>
    <symbol id="expression" viewBox="0 0 20 20" version="1.1">
        <g transform="translate(-309.000000, -365.000000)" fill="#D12238">
            <g transform="translate(18.000000, 118.000000)">
                <g transform="translate(21.000000, 247.000000)">
                    <path d="M274.99206,7.49586859 C274.99206,8.18736161 275.552587,8.74788515 276.244084,8.74788515 C276.935581,8.74788515 277.496107,8.18736161 277.496107,7.49586859 C277.496107,6.8044879 276.935581,6.24385203 276.244084,6.24385203 C275.552587,6.24385203 274.99206,6.8044879 274.99206,7.49586859 Z M282.503752,7.49586859 C282.503752,8.18736161 283.064391,8.74788515 283.755888,8.74788515 C284.447273,8.74788515 285.0078,8.18736161 285.0078,7.49586859 C285.0078,6.8044879 284.447273,6.24385203 283.755888,6.24385203 C283.064391,6.24385203 282.503752,6.8044879 282.503752,7.49586859 Z M279.999733,15.6330777 C278.247276,15.6330777 276.494511,14.7557731 275.492802,13.3795826 C275.116235,12.8787311 274.867801,12.2537056 274.615493,11.7529664 C274.491234,11.3764011 274.739555,11.0018014 274.99206,10.8756618 C275.368656,10.7513756 275.617089,10.9998357 275.743229,11.2521148 C275.867516,11.7529664 276.119937,12.1295598 276.368258,12.5041314 C277.369967,13.756148 278.621991,14.3831391 279.997739,14.3831391 C281.37405,14.3831391 282.752326,13.7581417 283.503495,12.630299 C283.753923,12.2537056 284.00435,11.7549601 284.128524,11.3783948 C284.254665,11.0018014 284.629379,10.8775433 284.879694,11.0018014 C285.256373,11.1259753 285.380548,11.5025406 285.256373,11.7529664 C285.130121,12.3779918 284.755519,12.8787311 284.378952,13.3795826 C283.505461,14.7577388 281.752583,15.6330777 279.999733,15.6330777 Z M279.999733,20 C274.533355,20 270,15.4668947 270,9.99990172 C270,4.53321764 274.533355,0 279.999733,0 C285.466645,0 290,4.53321764 290,9.99990172 C290,15.4668947 285.466645,20 279.999733,20 Z M279.999733,1.33406905 C275.200366,1.33406905 271.334077,5.20025217 271.334077,9.99990172 C271.334077,14.7997478 275.200366,18.6659309 279.999733,18.6659309 C284.799494,18.6659309 288.665699,14.7997478 288.665699,9.99990172 C288.665699,5.20025217 284.799494,1.33406905 279.999733,1.33406905 Z"></path>
                </g>
            </g>
        </g>
    </symbol>
    <symbol id="close" viewBox="0 0 24 24" version="1.1">
        <g transform="translate(-306.000000, -160.000000)">
            <g transform="translate(318.263456, 172.263456) rotate(-315.000000) translate(-318.263456, -172.263456) translate(306.763456, 160.763456)">
                <path d="M11.5,23 C5.15857142,23 0,17.8414286 0,11.5 C0,5.15857142 5.15857142,0 11.5,0 C17.8414286,0 23,5.15857142 23,11.5 C23,17.8414286 17.8414286,23 11.5,23 Z M11.5,1.64285714 C6.04571428,1.64285714 1.64285714,6.04571428 1.64285714,11.5 C1.64285714,16.9542857 6.04571428,21.3571429 11.5,21.3571429 C16.9542857,21.3571429 21.3571429,16.9542857 21.3571429,11.5 C21.3571429,6.04571428 16.9542857,1.64285714 11.5,1.64285714 Z" ></path>
                <path d="M15.0143218,12.2214646 L12.5500361,12.2214646 L12.5500361,15.0143218 C12.5500361,15.4743218 12.1886075,15.8357504 11.7286075,15.8357504 C11.2686075,15.8357504 10.9071789,15.4743218 10.9071789,15.0143218 L10.9071789,12.2214646 L8.1143218,12.2214646 C7.6543218,12.2214646 7.29289322,11.8600361 7.29289322,11.4000361 C7.29289322,10.9400361 7.6543218,10.5786075 8.1143218,10.5786075 L10.9071789,10.5786075 L10.9071789,8.11432178 C10.9071789,7.65432178 11.2686075,7.2928932 11.7286075,7.29289322 C12.1886075,7.29289324 12.5500361,7.6543218 12.5500361,8.11432178 L12.5500361,10.5786075 L15.0143218,10.5786075 C15.4743218,10.5786075 15.8357504,10.9400361 15.8357504,11.4000361 C15.8357504,11.8600361 15.4743218,12.2214646 15.0143218,12.2214646 Z"></path>
            </g>
        </g>
    </symbol>
    <symbol id="iconSwitch" viewBox="0 0 7 9" version="1.1">
        <g transform="translate(-799.000000, -43.000000)">
            <g transform="translate(660.000000, 20.000000)">
                <g transform="translate(139.481013, 21.452830)">
                    <path d="M0.263856538,3 L6.87533832,3 C7.42762307,3 7.87533832,3.44771525 7.87533832,4 C7.87533832,4.24914389 7.78233528,4.48931502 7.61454114,4.67348288 L4.30875076,8.30185955 C3.93679644,8.71010999 3.3043155,8.73953381 2.89606506,8.36757949 C2.873148,8.34669991 2.85121432,8.32476589 2.83033508,8.30184853 L-0.475356321,4.67347186 C-0.84730456,4.26521587 -0.817871313,3.63273538 -0.409615325,3.26078714 C-0.225448759,3.09299921 0.0147177904,3 0.263856538,3 Z" id="Shape" transform="translate(3.569620, 6.056604) rotate(-90.000000) translate(-3.569620, -6.056604) "></path>
                </g>
            </g>
        </g>
    </symbol>
</svg>